mtllib material.mtl
usemtl material_0
v 0.04708800 -0.02942100 0.02378900
v 0.04708800 -0.02942100 0.02378900
v 0.04708800 -0.03047500 0.02378900
v 0.04708800 -0.03047500 0.02378900
v 0.04713900 -0.03047500 0.02378900
v 0.04713900 -0.03047500 0.02378900
v 0.04713900 -0.03047500 0.02378900
v 0.04713900 -0.02942100 0.02378900
v 0.04713900 -0.02942100 0.02378900
v 0.04713900 -0.02942100 0.02378900
v 0.04708800 -0.02942100 0.02721100
v 0.04708800 -0.02942100 0.02721100
v 0.04713900 -0.02942100 0.02721100
v 0.04713900 -0.02942100 0.02721100
v 0.04713900 -0.02942100 0.02721100
v 0.04713900 -0.03047500 0.02721100
v 0.04713900 -0.03047500 0.02721100
v 0.04713900 -0.03047500 0.02721100
v 0.04708800 -0.03047500 0.02721100
v 0.04708800 -0.03047500 0.02721100
v 0.04051200 -0.03047500 0.02721100
v 0.04051200 -0.03047500 0.02721100
v 0.04046100 -0.03047500 0.02721100
v 0.04046100 -0.03047500 0.02721100
v 0.04046100 -0.03047500 0.02721100
v 0.04046100 -0.02942100 0.02721100
v 0.04046100 -0.02942100 0.02721100
v 0.04046100 -0.02942100 0.02721100
v 0.04051200 -0.02942100 0.02721100
v 0.04051200 -0.02942100 0.02721100
v 0.04051200 -0.03047500 0.02378900
v 0.04051200 -0.03047500 0.02378900
v 0.04051200 -0.02942100 0.02378900
v 0.04051200 -0.02942100 0.02378900
v 0.04046100 -0.02942100 0.02378900
v 0.04046100 -0.02942100 0.02378900
v 0.04046100 -0.02942100 0.02378900
v 0.04046100 -0.03047500 0.02378900
v 0.04046100 -0.03047500 0.02378900
v 0.04046100 -0.03047500 0.02378900
vn -0.00000000 -0.00000000 -1.00000000
vn -0.00000000 1.00000000 -0.00000000
vn -0.00000000 -0.00000000 -1.00000000
vn -0.00000000 -1.00000000 -0.00000000
vn -0.00000000 -0.00000000 -1.00000000
vn 1.00000000 -0.00000000 -0.00000000
vn -0.00000000 -1.00000000 -0.00000000
vn -0.00000000 -0.00000000 -1.00000000
vn -0.00000000 1.00000000 -0.00000000
vn 1.00000000 -0.00000000 -0.00000000
vn -0.00000000 -0.00000000 1.00000000
vn -0.00000000 1.00000000 -0.00000000
vn -0.00000000 -0.00000000 1.00000000
vn -0.00000000 1.00000000 -0.00000000
vn 1.00000000 -0.00000000 -0.00000000
vn -0.00000000 -0.00000000 1.00000000
vn 1.00000000 -0.00000000 -0.00000000
vn -0.00000000 -1.00000000 -0.00000000
vn -0.00000000 -0.00000000 1.00000000
vn -0.00000000 -1.00000000 -0.00000000
vn -0.00000000 -0.00000000 1.00000000
vn -0.00000000 -1.00000000 -0.00000000
vn -0.00000000 -0.00000000 1.00000000
vn -1.00000000 -0.00000000 -0.00000000
vn -0.00000000 -1.00000000 -0.00000000
vn -0.00000000 -0.00000000 1.00000000
vn -0.00000000 1.00000000 -0.00000000
vn -1.00000000 -0.00000000 -0.00000000
vn -0.00000000 -0.00000000 1.00000000
vn -0.00000000 1.00000000 -0.00000000
vn -0.00000000 -0.00000000 -1.00000000
vn -0.00000000 -1.00000000 -0.00000000
vn -0.00000000 -0.00000000 -1.00000000
vn -0.00000000 1.00000000 -0.00000000
vn -0.00000000 -0.00000000 -1.00000000
vn -0.00000000 1.00000000 -0.00000000
vn -1.00000000 -0.00000000 -0.00000000
vn -0.00000000 -0.00000000 -1.00000000
vn -1.00000000 -0.00000000 -0.00000000
vn -0.00000000 -1.00000000 -0.00000000
vt 0.17942200 0.94534900
vt 0.17942200 0.94534900
vt 0.17942200 0.94534900
vt 0.17942200 0.94534900
vt 0.18032800 0.94613900
vt 0.18032800 0.94613900
vt 0.18032800 0.94613900
vt 0.18032800 0.94613900
vt 0.18032800 0.94613900
vt 0.18032800 0.94613900
vt 0.11865000 0.99837300
vt 0.11865000 0.99837300
vt 0.11955500 0.99916300
vt 0.11955500 0.99916300
vt 0.11955500 0.99916300
vt 0.11955500 0.99916300
vt 0.11955500 0.99916300
vt 0.11955500 0.99916300
vt 0.11865000 0.99837300
vt 0.11865000 0.99837300
vt 0.00186500 0.89647700
vt 0.00186500 0.89647700
vt 0.00095900 0.89568700
vt 0.00095900 0.89568700
vt 0.00095900 0.89568700
vt 0.00095900 0.89568700
vt 0.00095900 0.89568700
vt 0.00095900 0.89568700
vt 0.00186500 0.89647700
vt 0.00186500 0.89647700
vt 0.06263700 0.84345300
vt 0.06263700 0.84345300
vt 0.06263700 0.84345300
vt 0.06263700 0.84345300
vt 0.06173100 0.84266200
vt 0.06173100 0.84266200
vt 0.06173100 0.84266200
vt 0.06173100 0.84266200
vt 0.06173100 0.84266200
vt 0.06173100 0.84266200
f 5/5/5 3/3/3 1/1/1
f 8/8/8 5/5/5 1/1/1
f 12/12/12 9/9/9 2/2/2
f 18/18/18 4/4/4 7/7/7
f 20/20/20 4/4/4 18/18/18
f 15/15/15 6/6/6 10/10/10
f 17/17/17 6/6/6 15/15/15
f 14/14/14 9/9/9 12/12/12
f 19/19/19 13/13/13 11/11/11
f 19/19/19 16/16/16 13/13/13
f 29/29/29 23/23/23 21/21/21
f 40/40/40 22/22/22 25/25/25
f 40/40/40 32/32/32 22/22/22
f 29/29/29 26/26/26 23/23/23
f 37/37/37 24/24/24 28/28/28
f 39/39/39 24/24/24 37/37/37
f 34/34/34 27/27/27 30/30/30
f 36/36/36 27/27/27 34/34/34
f 35/35/35 33/33/33 31/31/31
f 38/38/38 35/35/35 31/31/31

